<svg width="664" height="440" viewBox="0 0 664 440" fill="none" xmlns="http://www.w3.org/2000/svg">
<path d="M340.962 193.78L350.394 209.617L362.885 202.261L340.962 193.78Z" fill="#D4388B"/>
<path d="M364.212 185.242L356.943 193.636L342.924 182.126L364.212 185.242Z" fill="#D4388B"/>
<path d="M425.655 193.348L431.424 199.78L421.703 200.415L425.655 193.348Z" fill="#C84A9D"/>
<path d="M127.904 287.56L168.433 272.127L130.789 243.829L127.904 287.56Z" fill="#3A214E"/>
<path d="M169.789 270.742L163.76 245.675L137.279 253.55L169.789 270.742Z" fill="#542A6C"/>
<path d="M131.971 228.771L137.192 256.031L113.538 253.637L131.971 228.771Z" fill="#6A3787"/>
<path d="M147.606 312.57L173.279 288.512L112.327 279.281L147.606 312.57Z" fill="#7D4AAB"/>
<path d="M125.02 339.454L171.289 306.829L132.693 312.339L125.02 339.454Z" fill="#9A57A3"/>
<path d="M108.75 278.877L91.9903 325.954L133.183 318.339L108.75 278.877Z" fill="#542A6C"/>
<path d="M353.677 184.29L345.664 199.55L359.164 199.146L353.677 184.29Z" fill="#883685"/>
<path d="M350.684 204.598L362.886 216.973L364.011 204.598H350.684Z" fill="#A3327C"/>
<path d="M341.625 203.098L356.365 185.415L320.423 178.924L341.625 203.098Z" fill="#A3327C"/>
<path d="M340.414 171.569L360.664 182.963L339.174 188.098L340.414 171.569Z" fill="#883685"/>
<path d="M172.5 243.31L190.24 279.05L156.317 269.589L172.5 243.31Z" fill="#8A4DA7"/>
<path d="M148.154 274.175L191.077 270.944L167.164 307.81L148.154 274.175Z" fill="#6A3787"/>
<path d="M502.241 125.962L495.318 149.501L480.434 142.087L502.241 125.962Z" fill="#883685"/>
<path d="M476.827 143.271L465.606 162.684L457.875 143.271H476.827Z" fill="#D4388B"/>
<path d="M432.98 186.367L424.788 195.857L429.432 198.915L432.98 186.367Z" fill="#A3327C"/>
<path d="M410.105 174.251L413.134 183.8L417.721 174.251H410.105Z" fill="#883685"/>
<path d="M134.279 247.752L147.953 220.608L179.539 247.752L134.279 247.752Z" fill="#6A3787"/>
<path d="M81.8074 274.925L74.8555 288.858L108.75 285.137L81.8074 274.925Z" fill="#492666"/>
<path d="M479.223 85.0295L510.348 70.116V100.376L479.223 85.0295Z" fill="#67236D"/>
<path d="M479.713 159.597L474.434 175.174L459.578 167.501L479.713 159.597Z" fill="#D4388B"/>
<path d="M516.634 129.136L511.615 142.088L485.711 130.78L516.634 129.136Z" fill="#7D4AAB"/>
<path d="M250.933 236.329L262.183 238.665L249 254.559L250.933 236.329Z" fill="#73328A"/>
<path d="M264.348 234.656L248.771 241.838L258.348 226.723L264.348 234.656Z" fill="#9A57A3"/>
<path d="M239.107 199.175L256.3 221.127L211.848 222.425L239.107 199.175Z" fill="#8A4DA7"/>
<path d="M446.365 90.0488L459.836 92.6738V110.068L446.365 90.0488Z" fill="#67236D"/>
<path d="M366.521 161.501L363.405 138.251L335.223 167.588L366.521 161.501Z" fill="#67236D"/>
<path d="M436.933 141.943L420.808 151.838L408.174 121.578L436.933 141.943Z" fill="#7D4AAB"/>
<path d="M449.856 150.136L462.404 163.838L433.99 152.011L449.856 150.136Z" fill="#7D4AAB"/>
<path d="M493.53 159.511L479.684 149.992L505.501 145.665L493.53 159.511Z" fill="#A3327C"/>
<path d="M360.519 96.5103L390.029 123.857L327.635 119.905L360.519 96.5103Z" fill="#743C94"/>
<path d="M135.894 281.646L107.336 254.271L102.23 288.598L135.894 281.646Z" fill="#6A3787"/>
<path d="M423.116 124.318L459.318 112.578L421.674 100.837L423.116 124.318Z" fill="#8B4EAD"/>
<path d="M153.289 294.194L136.356 316.925L115.702 294.194H153.289Z" fill="#6A3787"/>
<path d="M391.587 127.491L395.049 145.203L362.684 130.318L391.587 127.491Z" fill="#9A57A3"/>
<path d="M556.212 174.223L546.865 195.309L561 178.78L556.212 174.223Z" fill="#C84A9D"/>
<path d="M568.125 168.28L562.789 170.107L569.02 154.376L568.125 168.28Z" fill="#883685"/>
<path d="M335.828 175.751L322.242 187.953L334.732 209.617L335.828 175.751Z" fill="#7D4AAB"/>
<path d="M370.061 199.406L360.635 216.079L373.558 212.709L370.061 199.406Z" fill="#883685"/>
<path d="M399 92.5293L455.394 78.1638L411.462 74.8465L399 92.5293Z" fill="#743C94"/>
<path d="M446.28 110.905L421.53 75.2505L450.809 70.0005L446.28 110.905Z" fill="#69307D"/>
<path d="M551.567 40.6349L545.856 28.1733L529.615 32.1253L551.567 40.6349Z" fill="#6D2367"/>
<path d="M431.972 133.549L412.559 129.857L419.857 109.78L431.972 133.549Z" fill="#743C94"/>
<path d="M257.394 224.877L225.836 225.684L207.98 247.088L257.394 224.877Z" fill="#8B4EAD"/>
<path d="M286.847 211.723L282.26 227.04L280.516 215.502L286.847 211.723Z" fill="#8B4EAD"/>
<path d="M386.424 172.29L415.933 161.501L401.28 140.876L386.424 172.29Z" fill="#7D4AAB"/>
<path d="M222.635 221.444L209.971 246.627L186.26 194.848L222.635 221.444Z" fill="#6A3787"/>
<path d="M250.443 150.222L236.193 205.809L210.924 185.501L250.443 150.222Z" fill="#6A3787"/>
<path d="M301.731 149.934L328.01 120.684L277.904 132.857L301.731 149.934Z" fill="#743C94"/>
<path d="M433.414 178.925L431.366 196.694L427.01 184.982L433.414 178.925Z" fill="#D4388B"/>
<path d="M423.98 189.251L422.942 209.588L415.355 191.559L423.98 189.251Z" fill="#D4388B"/>
<path d="M508.818 94.2024L505.645 131.241L496.559 109.058L508.818 94.2024Z" fill="#D4388B"/>
<path d="M513.288 42.5386L530.566 60.0483L497.941 53.5868L513.288 42.5386Z" fill="#883685"/>
<path d="M284.56 153.684L280.184 185.068L249.232 156.713L284.56 153.684Z" fill="#9A57A3"/>
<path d="M354.174 121.52L336.751 143.472L307.76 134.357L354.174 121.52Z" fill="#9A57A3"/>
<path d="M229.155 185.068L223.645 228.828L207.059 197.328L229.155 185.068Z" fill="#9A57A3"/>
<path d="M314.164 174.338L300.232 200.242L288.261 185.068L314.164 174.338Z" fill="#9A57A3"/>
<path d="M297.836 118.866L331.528 143.501L295.441 159.713L297.836 118.866Z" fill="#67236D"/>
<path d="M645.087 109.52L636.059 127.145L642.578 107.443L645.087 109.52Z" fill="#D4388B"/>
<path d="M283.934 140.501L307.184 174.136L258.578 159.799L283.934 140.501Z" fill="#743C94"/>
<path d="M411.115 167.646L411.836 190.521L402.461 169.924L411.115 167.646Z" fill="#C84A9D"/>
<path d="M399.693 228.482L393.289 243.338L389.539 233.906L399.693 228.482Z" fill="#C84A9D"/>
<path d="M419.394 201.684L420.49 214.607L413.711 201.684H419.394Z" fill="#C84A9D"/>
<path d="M106.413 277.579L98.5383 259.608L72.4902 277.579H106.413Z" fill="#542D6A"/>
<path d="M411.057 211.406L399.086 223.175L409.903 218.184L411.057 211.406Z" fill="#C84A9D"/>
<path d="M421.066 215.703L405.691 228.944L416.884 211.694L421.066 215.703Z" fill="#C84A9D"/>
<path d="M434.856 218.732L421.5 227.358L426.779 217.954L434.856 218.732Z" fill="#C84A9D"/>
<path d="M431.135 206.242L425.192 217.492L422.25 204.281L431.135 206.242Z" fill="#C84A9D"/>
<path d="M232.703 242.098L244.587 244.348L229.559 258.252L232.703 242.098Z" fill="#9A57A3"/>
<path d="M227.712 253.463L235.01 255.079L208.125 279.281L227.712 253.463Z" fill="#883685"/>
<path d="M248.136 238.117L260.165 228.079L246.203 226.059L248.136 238.117Z" fill="#7D4AAB"/>
<path d="M221.309 244.954L237.78 247.406L228.462 236.848L221.309 244.954Z" fill="#7D4AAB"/>
<path d="M272.828 215.848L283.069 216.915L272.828 235.06V215.848Z" fill="#9A57A3"/>
<path d="M258.182 221.502L253.73 210.194H289.441L258.182 221.502Z" fill="#7D4AAB"/>
<path d="M310.991 156.309L307.876 192.136L275.337 161.27L310.991 156.309Z" fill="#73328A"/>
<path d="M381.029 121.52L363.606 143.472L334.616 134.357L381.029 121.52Z" fill="#73328A"/>
<path d="M261.664 174.943L250.789 224.79L233.914 197.328L261.664 174.943Z" fill="#73328A"/>
<path d="M279.693 237.54L274.559 230.732L271.184 243.482L279.693 237.54Z" fill="#7D4AAB"/>
<path d="M271.068 242.098L274.76 243.944L257.424 258.569L271.068 242.098Z" fill="#883685"/>
<path d="M248.684 250.867L252.953 254.156L236.309 265.694L248.684 250.867Z" fill="#883685"/>
<path d="M300.201 174.136L282.572 205.478H245.941L300.201 174.136Z" fill="#7D4AAB"/>
<path d="M449.019 158.934L461.019 167.415L445.355 171.165L449.019 158.934Z" fill="#C84A9D"/>
<path d="M488.336 147.107L468.894 164.559L471.317 147.107H488.336Z" fill="#C84A9D"/>
<path d="M497.423 140.905L496.702 158.934L517.038 133.405L497.423 140.905Z" fill="#C84A9D"/>
<path d="M488.336 162.54L473.25 173.357H482.423L488.336 162.54Z" fill="#C84A9D"/>
<path d="M417.547 163.636V180.828L410.566 164.934L417.547 163.636Z" fill="#D4388B"/>
<path d="M283.848 222.425L276.405 224.617L278.309 238.377L283.848 222.425Z" fill="#883685"/>
<path d="M435.086 165.886L432.461 176.155L430.211 160.463L435.086 165.886Z" fill="#D4388B"/>
<path d="M392.596 190.203L379.644 198.857L372.865 190.203H392.596Z" fill="#A3327C"/>
<path d="M390.232 191.3L399.549 197.386L382.184 198.655L390.232 191.3Z" fill="#C84A9D"/>
<path d="M370.672 221.502L372.692 210.425L351.086 216.54L370.672 221.502Z" fill="#D4388B"/>
<path d="M414.981 206.617V220.579L409.125 211.838L414.981 206.617Z" fill="#D4388B"/>
<path d="M409.039 225.021L395.049 234.569L398.193 223.579L409.039 225.021Z" fill="#D4388B"/>
<path d="M416.338 229.117L402.348 238.665L405.492 227.675L416.338 229.117Z" fill="#D4388B"/>
<path d="M429.201 220.405L415.211 229.954L418.355 218.963L429.201 220.405Z" fill="#D4388B"/>
<path d="M432.779 212.04V222.165L422.135 212.04H432.779Z" fill="#D4388B"/>
<path d="M310.212 193.751L272.28 198.05L255.809 223.838L310.212 193.751Z" fill="#8863AA"/>
<path d="M201.491 216.136L245.741 144.367L183.462 190.261L201.491 216.136Z" fill="#492666"/>
<path d="M360.634 164.905L322.702 169.203L309.115 193.377L360.634 164.905Z" fill="#8863AA"/>
<path d="M406.818 146.328L372.982 137.992L368.424 159.598L406.818 146.328Z" fill="#883685"/>
<path d="M399.491 166.867L373.587 154.405L371.654 172.867L399.491 166.867Z" fill="#883685"/>
<path d="M413.453 159.338V168.771L393.723 170.732L413.453 159.338Z" fill="#883685"/>
<path d="M395.135 173.992L404.856 179.934L403.702 172.117L395.135 173.992Z" fill="#883685"/>
<path d="M432.663 153.828L426.144 163.578L417.865 159.367L432.663 153.828Z" fill="#883685"/>
<path d="M543.26 53.6445L549.087 41.6803L528.26 33.481L543.26 53.6445Z" fill="#542A6C"/>
<path d="M510.172 48.0483V65.0965L469.961 52.808L510.172 48.0483Z" fill="#542A6C"/>
<path d="M553.73 35.9906L549.518 23.7453L536.941 19.1155L553.73 35.9906Z" fill="#542A6C"/>
<path d="M558.375 62.0676H541.5L547.356 56.6445L558.375 62.0676Z" fill="#743C94"/>
<path d="M519.144 75.51L491.221 56.8752L463.875 70.1157L519.144 75.51Z" fill="#743C94"/>
<path d="M535.788 77.8465L527.192 63.8271L520.24 75.6541L535.788 77.8465Z" fill="#743C94"/>
<path d="M357.548 141.309L341.452 169.752H303.75L357.548 141.309Z" fill="#7D4AAB"/>
<path d="M414.404 68.0387L450.087 55.606L431.222 80.0676L414.404 68.0387Z" fill="#542A6C"/>
<path d="M446.973 84.1349L494.54 61.8367L469.155 100.895L446.973 84.1349Z" fill="#3A214E"/>
<path d="M419.078 140.847L446.742 109.29L469.559 124.203L419.078 140.847Z" fill="#542A6C"/>
<path d="M384.03 76.1157L401.943 141.568L371.799 109.462L384.03 76.1157Z" fill="#67236D"/>
<path d="M508.846 118.809L522.289 122.011L495.635 129.366L508.846 118.809Z" fill="#542A6C"/>
<path d="M565.559 83.0679L590.498 91.2314L586.443 83.0679H565.559Z" fill="#D4388B"/>
<path d="M537.52 67.7214L561.26 79.0003L546.635 81.3946L537.52 67.7214Z" fill="#D4388B"/>
<path d="M477.808 123.366L498.174 127.434L472.962 150.049L477.808 123.366Z" fill="#A3327C"/>
<path d="M478.99 135.828L436.875 156.338L469.154 125.472L478.99 135.828Z" fill="#542A6C"/>
<path d="M433.904 151.665L420.722 160.059L422.395 147.597L433.904 151.665Z" fill="#542A6C"/>
<path d="M458.135 124.087L509.366 103.376L475.385 99.1353L458.135 124.087Z" fill="#883685"/>
<path d="M429.23 153.684L476.077 131.069L441.865 128.674L429.23 153.684Z" fill="#883685"/>
<path d="M456.691 116.905L501.836 85.0008L478.268 70.4045L456.691 116.905Z" fill="#743C94"/>
<path d="M539.049 74.1253L532.53 60.2502L528.78 69.1349L539.049 74.1253Z" fill="#A3327C"/>
<path d="M440.51 58.3175L489.894 49.606L466.875 73.3465L440.51 58.3175Z" fill="#73328A"/>
<path d="M398.885 95.674L419.712 131.674L413.221 145.232L398.885 95.674Z" fill="#542A6C"/>
<path d="M510.404 120.741L534.836 102.251L508.73 91.2314L510.404 120.741Z" fill="#883685"/>
<path d="M527.105 77.1832L544.471 89.7891L537.519 76.0871L527.105 77.1832Z" fill="#A3327C"/>
<path d="M521.684 67.9811L542.309 81.885L545.193 74.933L521.684 67.9811Z" fill="#883685"/>
<path d="M585.49 86.5005L599.769 87.4236L615.952 103.376L585.49 86.5005Z" fill="#883685"/>
<path d="M608.598 89.6448L629.165 101.847L632.944 93.3659L608.598 89.6448Z" fill="#883685"/>
<path d="M626.77 106.174L637.327 104.385L643.443 113.183L626.77 106.174Z" fill="#A3327C"/>
<path d="M543.49 69.4233L565.875 76.4041L570 87.0484L543.49 69.4233Z" fill="#883685"/>
<path d="M549.115 64.1445L526.673 64.7214L537.519 58.3176L549.115 64.1445Z" fill="#883685"/>
<path d="M413.943 125.472L403.126 94.9239L418.414 83.0104L413.943 125.472Z" fill="#67236D"/>
<path d="M412.875 103.289L460.356 108.424L426.346 85.3468L412.875 103.289Z" fill="#743C94"/>
<path d="M394.674 72.1927L414.405 66.51L402.174 91.3467L394.674 72.1927Z" fill="#542A6C"/>
<path d="M342.259 138.251L334.816 156.915L309.691 150.222L342.259 138.251Z" fill="#73328A"/>
<path d="M536.25 17.9041L546.231 25.5772L526.904 22.231L536.25 17.9041Z" fill="#3A214E"/>
<path d="M162.606 229.319L156.664 203.963L122.135 235.117L162.606 229.319Z" fill="#492666"/>
<path d="M363.52 138.828L369.491 159.742H402.32L363.52 138.828Z" fill="#7D4AAB"/>
<path d="M408.433 166.982L414.26 172.405L410.106 178.78L408.433 166.982Z" fill="#A3327C"/>
<path d="M411.635 197.992L393.317 190.059L398.308 199.348L411.635 197.992Z" fill="#A3327C"/>
<path d="M414.981 178.348L411.923 190.463L419.898 191.04L414.981 178.348Z" fill="#A3327C"/>
<path d="M420.232 161.703L432.434 160.319L426.607 172.117L420.232 161.703Z" fill="#A3327C"/>
<path d="M428.279 172.146L431.625 178.636L425.106 188.905L428.279 172.146Z" fill="#A3327C"/>
<path d="M447.895 176.732L475.039 173.386L453.808 166.059L447.895 176.732Z" fill="#A3327C"/>
<path d="M487.125 167.415L473.365 162.098L486.288 158.674L487.125 167.415Z" fill="#A3327C"/>
<path d="M555.635 179.876L542.885 188.213L557.394 171.828L555.635 179.876Z" fill="#A3327C"/>
<path d="M450.75 162.136L465.75 166.578L458.856 143.761L450.75 162.136Z" fill="#A3327C"/>
<path d="M517.125 125.819L507 134.819L493.788 121.636L517.125 125.819Z" fill="#A3327C"/>
<path d="M532.328 111.741L515.02 121.982L496.588 109.664L532.328 111.741Z" fill="#A3327C"/>
<path d="M495.779 90.2796L519.49 107.616L486.029 99.395L495.779 90.2796Z" fill="#A3327C"/>
<path d="M425.682 183.309L428.768 190.405L421.816 196.088L425.682 183.309Z" fill="#C84A9D"/>
<path d="M399.691 189.771L405.922 195.742L415.499 191.3L399.691 189.771Z" fill="#C84A9D"/>
<path d="M344.309 221.675V210.454L367.068 225.425L344.309 221.675Z" fill="#C84A9D"/>
<path d="M423.432 195.944L415.961 202.03L408.23 192.8L423.432 195.944Z" fill="#A3327C"/>
<path d="M411.231 198.367L412.327 207.8L420.029 211.694L411.231 198.367Z" fill="#A3327C"/>
<path d="M411.75 217.117L410.913 223.579H400.442L411.75 217.117Z" fill="#A3327C"/>
<path d="M402.605 235.925L401.221 243.483H392.134L402.605 235.925Z" fill="#A3327C"/>
<path d="M430.066 200.04V212.098L421.326 201.569L430.066 200.04Z" fill="#A3327C"/>
<path d="M392.02 235.29L400.327 223.867L384.779 229.925L392.02 235.29Z" fill="#A3327C"/>
<path d="M412.587 230.3L418.847 221.271L407.049 225.569L412.587 230.3Z" fill="#A3327C"/>
<path d="M422.48 219.915L427.73 211.838L416.941 215.184L422.48 219.915Z" fill="#A3327C"/>
<path d="M527.193 22.6348L540.866 35.8464L519.174 40.4618L527.193 22.6348Z" fill="#3A214E"/>
<path d="M368.855 217.232L377.192 234.886L363.461 223.059L368.855 217.232Z" fill="#A3327C"/>
<path d="M531.348 33.0195L555.405 35.3272L549.809 44.8177L531.348 33.0195Z" fill="#542A6C"/>
<path d="M440.973 73.1156L466.876 54.8848L469.271 79.808L440.973 73.1156Z" fill="#542A6C"/>
<path d="M264.898 201.482L280.215 180.367L239.654 158.444L264.898 201.482Z" fill="#743C94"/>
<path d="M328.703 201.482L351.636 208.751L346.069 216.569L328.703 201.482Z" fill="#A3327C"/>
<path d="M98.625 345.916L112.788 314.993L135.577 333.945L98.625 345.916Z" fill="#743C94"/>
<path d="M379.848 100.577V79.26L349.848 92.0389L379.848 100.577Z" fill="#73328A"/>
<path d="M262.673 166.116L308.914 111.193L245.02 144.943L262.673 166.116Z" fill="#542A6C"/>
<path d="M325.558 137.443L374.135 81.9141L308.25 110.905L325.558 137.443Z" fill="#542A6C"/>
<path d="M232.932 259.117L238.846 250.117L228.23 251.152L232.932 259.117Z" fill="#73328A"/>
<path d="M100.385 311.82L99.3172 283.579L81.8076 305.098L100.385 311.82Z" fill="#743C94"/>
<path d="M361.242 183.482L372.723 204.771L357.953 193.607L361.242 183.482Z" fill="#A3327C"/>
<path d="M610.847 42.3368L595.154 45.0771L604.212 48.2502L610.847 42.3368Z" fill="#883685"/>
<path d="M587.424 49.5771L597.635 44.5867L602.683 48.481L587.424 49.5771Z" fill="#67236D"/>
<path d="M597.058 47.9039H587.25V52.6636L597.058 47.9039Z" fill="#743C94"/>
<path d="M647.451 23.6156L634.816 31.1445H642.374L647.451 23.6156Z" fill="#883685"/>
<path d="M654.376 36.2501L638.973 37.202L648.982 42.3367L654.376 36.2501Z" fill="#883685"/>
<path d="M648.289 14.8752L631.039 7.08674L638.135 4.46173L648.289 14.8752Z" fill="#883685"/>
<path d="M656.739 14.4425L649.816 16.9521L653.566 25.5483L656.739 14.4425Z" fill="#883685"/>
<path d="M625.73 35.356L635.654 29.7021L639.375 32.5002L625.73 35.356Z" fill="#67236D"/>
<path d="M635.366 34.577H625.559V39.3367L635.366 34.577Z" fill="#743C94"/>
<path d="M589.501 48.481L573.809 51.2214L582.866 54.3945L589.501 48.481Z" fill="#883685"/>
<path d="M566.078 55.7214L576.29 50.731L581.338 54.6253L566.078 55.7214Z" fill="#67236D"/>
<path d="M572.999 56.1252L563.278 53.529L557.941 60.2791L572.999 56.1252Z" fill="#883685"/>
<path d="M620.105 37.0867L608.711 43.8079H617.596L620.105 37.0867Z" fill="#883685"/>
<path d="M638.713 36.5099L621.348 38.183L625.646 42.7695L638.713 36.5099Z" fill="#883685"/>
<path d="M601.559 45.3945L611.77 40.4041L616.818 44.2984L601.559 45.3945Z" fill="#67236D"/>
<path d="M530.309 99.5599L535.414 97.8083L544.818 109.368L530.309 99.5599Z" fill="#743C94"/>
<path d="M626.338 34.2382L617.453 39.517L623.165 42.5459L626.338 34.2382Z" fill="#67236D"/>
<path d="M548.25 62.2695L559.442 54.7118L564.837 59.2407L548.25 62.2695Z" fill="#67236D"/>
<path d="M426.316 166.059L434.739 171.021L432.316 181.319L426.316 166.059Z" fill="#C84A9D"/>
<path d="M577.501 53.1829L566.973 52.4618L571.011 57.4233L577.501 53.1829Z" fill="#743C94"/>
<path d="M538.848 46.4673L543.375 55.9234L519.75 51.4234L538.848 46.4673Z" fill="#3A214E"/>
<path d="M537.779 98.8756L527.712 109.231L517.645 90.0198L537.779 98.8756Z" fill="#67236D"/>
<path d="M513.462 96.1064L525.982 89.5872L506.424 77.616L513.462 96.1064Z" fill="#743C94"/>
<path d="M517.097 75.1061L539.337 52.3752L498.029 56.9618L517.097 75.1061Z" fill="#6D2367"/>
<path d="M635.827 102.28L613.76 120.02L628.644 102.28H635.827Z" fill="#D4388B"/>
<path d="M615 102.77L620.163 98.2698L631.673 109.779L615 102.77Z" fill="#A3327C"/>
<path d="M629.278 100.26L605.941 117.164L622.095 100.26H629.278Z" fill="#D4388B"/>
<path d="M602.279 92.2698L607.443 87.7698L618.952 99.2795L602.279 92.2698Z" fill="#A3327C"/>
<path d="M638.568 5.99039L624.404 12.7693L634.27 1.9519L638.568 5.99039Z" fill="#D4388B"/>
<path d="M655.095 22.6348L641.191 29.6733L651.057 18.8848L655.095 22.6348Z" fill="#D4388B"/>
<path d="M641.48 12.5097L654.807 15.5675L641.48 5.99048V12.5097Z" fill="#D4388B"/>
<path d="M657.722 38.3271L652.587 47.0675L649.934 36.5098L657.722 38.3271Z" fill="#D4388B"/>
<path d="M647.02 40.0002L634.414 35.9617L632.885 42.6252L647.02 40.0002Z" fill="#67236D"/>
<path d="M605.941 96.1641L627.967 98.2699L631.66 92.2122L605.941 96.1641Z" fill="#D4388B"/>
<path d="M511.098 121.52L463.415 127.434L490.992 111.135L511.098 121.52Z" fill="#743C94"/>
<path d="M565.615 172.002L562.384 167.848L556.73 177.021L565.615 172.002Z" fill="#D4388B"/>
<path d="M572.942 160.578L570.547 156.309L565.961 167.415L572.942 160.578Z" fill="#D4388B"/>
<path d="M555.26 165.771L557.943 158.79L559.674 177.05L555.26 165.771Z" fill="#883685"/>
<path d="M556.039 155.559L560.078 153.424L560.078 168.598L556.039 155.559Z" fill="#A3327C"/>
<path d="M558.059 142.536L552.982 145.232V129.943L558.059 142.536Z" fill="#D4388B"/>
<path d="M554.308 152.361L559.154 156.915L556.868 138.655L554.308 152.361Z" fill="#883685"/>
<path d="M553.453 122.915L548.884 127.722L545.711 109.347L553.453 122.915Z" fill="#A3327C"/>
<path d="M549.203 114.856L544.633 117.481L537.549 102.914L549.203 114.856Z" fill="#883685"/>
<path d="M550.673 132.226L555.52 136.78L552.693 121.174L550.673 132.226Z" fill="#883685"/>
<path d="M563.135 133.232L568.039 131.097L568.039 146.271L563.135 133.232Z" fill="#A3327C"/>
<path d="M558.059 109.247L562.501 106.693L563.626 127.001L558.059 109.247Z" fill="#D4388B"/>
<path d="M562.269 128.015L567.115 132.569L564.829 114.309L562.269 128.015Z" fill="#883685"/>
<path d="M567.059 147.511L571.962 145.376L571.962 160.55L567.059 147.511Z" fill="#A3327C"/>
<path d="M569.135 136.016L564.058 138.713V123.424L569.135 136.016Z" fill="#D4388B"/>
<path d="M566.193 146.188L571.039 150.742L568.752 132.482L566.193 146.188Z" fill="#883685"/>
<path d="M556.73 99.5389L554.711 103.981L540.75 88.8081L556.73 99.5389Z" fill="#A3327C"/>
<path d="M536.828 81.4812L551.194 92.1832L549.751 97.0005L536.828 81.4812Z" fill="#883685"/>
<path d="M556.155 106.52L563.309 108.828L554.568 96.8564L556.155 106.52Z" fill="#883685"/>
<path d="M120.75 236.386L90.2305 263.127L127.384 261.079L120.75 236.386Z" fill="#542A6C"/>
<g filter="url(#filter0_d)">
<path d="M622.31 42.6918H650.037L652.998 49.3108L658.869 36.0571L632.517 35.9614L653.018 26.6196L658.864 15.6225L632.538 1L628.859 6.12706L622.32 15.659L632.549 9.83841L650.016 15.6512L646.443 23.7031L622.611 35.9614M622.31 42.6918L581.41 55.1233L558.016 61.7004M622.31 42.6918L601.848 48.851L581.394 55.0681L558 61.6449L536.106 67.4717L536.108 67.5279L555.089 71.1914L577.006 80.68L577.008 80.6807L577.01 80.6813L600.375 87.2582L600.377 87.2588L632.517 91.6403V100.4L646.383 109.164L632.685 135.137L639.88 113.522L628.878 109.121L607.936 125.726L622.328 109.173L622.292 109.128L600.555 120.712L617.249 104.762L600.396 95.9742L600.395 95.9734L600.393 95.9727L577.023 87.2016H569.726L555.099 80.6239L542.634 82.1023L557.986 100.403L557.987 100.404L557.987 100.405L562.367 104.784L572.308 145.672L574.074 157.327L569.692 166.863M558.016 61.7004L558.008 61.6726M558.016 61.7004L536.243 67.4951L555.103 71.1353L577.025 80.6257L577.029 80.627L600.387 87.2019L600.391 87.2027L632.575 91.5899V100.368L646.459 109.144L632.574 135.471L632.572 135.475L632.519 135.452L632.521 135.448L639.808 113.555L628.888 109.187L607.731 125.961L607.728 125.965L607.688 125.923L607.692 125.92L622.182 109.253L600.396 120.862L600.363 120.816L617.151 104.776L600.373 96.0268L600.369 96.0253L577.012 87.2593H569.713L555.09 80.6831L542.747 82.147L558.028 100.364L558.03 100.366L562.413 104.749L562.418 104.754L562.42 104.761M569.692 166.863L562.417 177.102L562.416 177.104L550.734 196.112L550.732 196.116L542.709 202.667L542.664 202.633L550.641 183.753L538.323 193.177L538.284 193.136L555.065 172.692V157.356L550.682 131.806L546.299 120.85L536.115 104.825L528.087 118.664L528.081 118.668L517.133 125.958V135.471L500.338 157.373L500.335 157.378L500.331 157.38L490.845 163.233L483.521 172.72L483.515 172.727L468.185 177.116H447.681L443.284 166.875L447.656 157.383L431.668 156.665M569.692 166.863L562.369 177.07L562.368 177.071L562.368 177.072L550.688 196.077L542.762 202.549L550.779 183.575L538.486 192.98L555.117 172.72L555.123 172.712V157.353L555.123 157.351L550.738 131.793L550.738 131.79L550.736 131.787L546.352 120.826L546.351 120.823L546.349 120.821L536.112 104.713L528.044 118.624L517.092 125.916L496.64 131.771L490.813 135.435L490.81 135.437L475.467 142.734L475.46 142.737L468.164 152.225L447.697 157.327L431.598 156.604M435.325 177.082L435.326 177.087L435.325 177.092M346.901 172.673L342.776 156.567L336.665 118.631L334.467 95.9737M346.901 172.673L321.325 192.433M346.901 172.673L364.471 185.357L372.866 202.673L374.135 218.029L371.052 222.02L375.054 226.559L379.045 237.722L367.41 227.521L342.776 223.577M367.349 163.902L359.95 125.917L355.641 87.204M367.349 163.902L386.402 145.679M367.349 163.902L346.923 172.731M367.349 163.902L371.625 174.193H393.491M393.491 174.193L407.019 166.875L417.981 161.299M393.491 174.193L405.837 181.693L408.808 189.548M417.981 161.299L431.598 156.604M417.981 161.299L386.402 145.679M417.981 161.299L427.225 174.193L422.864 189.519L419.212 189.51M417.981 161.299L419.212 189.51M417.981 161.299L420 152.414M431.605 199.096L435.267 177.087V166.876L431.598 156.604M431.605 199.096V206.193L435.326 221.083L413.914 232.059L405.734 237.437L399.108 246.713L388.731 242.819L391.13 237.437M431.605 199.096L424.846 199.349L419.212 199.637L422.864 216.742L399.106 234.255L391.13 237.437M431.598 156.604L427.125 152.01L420 152.414M622.611 35.9614L581.411 49.2673L581.41 49.2677L555.101 55.1238L533.179 58.7581L533.176 58.7588L533.164 58.7025M622.611 35.9614L581.396 49.2117L581.393 49.2124L555.09 55.0672L555.088 55.0675L533.707 58.6123L546.347 55.1195L550.736 42.6759L555.126 36.09L550.737 23.6724L550.733 23.6608L536.112 17.0728L524.402 23.6652V31.6926M533.164 58.7025L533.167 58.7019M533.164 58.7025L520.046 52.1534L517.119 42.6918M533.167 58.7019L546.303 55.0719L550.683 42.6533L550.684 42.6499M533.167 58.7019L517.075 71.1353L500.304 49.211M550.684 42.6499L555.062 36.082L550.687 23.7033L536.115 17.1374L524.46 23.6989V31.7101L524.455 31.7174L517.119 42.6918M550.684 42.6499L538.486 31.7174L524.402 31.6926M517.119 42.6918H507.625L500.335 49.2613L500.327 49.2687H483.498M483.498 49.2687L447.708 55.1234L447.705 55.1242L387.816 74.2496M483.498 49.2687L500.304 49.211M483.498 49.2687L465.595 52.1393L447.694 55.0675L447.692 55.068M387.816 74.2496L392.185 106.731L401.719 134.106M387.816 74.2496L370.988 80.6264M371.01 80.68L371.007 80.6811M371.007 80.6811L355.663 87.257L334.491 96.0258L334.49 96.0264L306.742 109.179L306.741 109.18M371.007 80.6811L373.959 99.6561L378.383 118.631L386.402 145.679M306.741 109.18L274.58 125.967L244.639 142.784L244.637 142.785M306.741 109.18L311.056 152.292L321.325 192.433M306.741 109.18L334.468 95.9731M244.637 142.785L213.226 163.236L213.225 163.236M244.637 142.785C247.065 159.695 248.426 169.176 250.854 186.087L257.777 225.318M213.225 163.236L197.848 176.373M213.225 163.236L217.277 186.087L225.671 217.097L230.748 237.722M197.848 176.373L182.551 189.525M197.848 176.373L182.5 189.496M197.848 176.373L182.502 189.559L194.717 221.106L208.414 251.271L219.409 244.296M197.848 176.373L213.194 163.187L213.195 163.187L244.608 142.735L244.608 142.735L244.609 142.734L274.551 125.917M274.551 125.917L306.716 109.128L306.717 109.128L334.467 95.9737M274.551 125.917L280.768 168.202L284.431 188.048L289.912 208.5M334.467 95.9737L334.468 95.9731M334.468 95.9731L355.641 87.204M355.641 87.204L370.988 80.6264M355.641 87.204L370.99 80.6259L370.988 80.6264M500.304 49.211L507.594 42.6415L507.603 42.6341M517.089 42.6341L524.402 31.6926M408.808 189.548H371.052L378.087 199.096L391.13 199.349L400.241 199.637L409.702 199.953L411.173 209.617L396.949 224.691L382.353 229.473L391.13 237.437M408.808 189.548L419.212 189.51M230.748 237.722L257.777 225.318M230.748 237.722L219.409 244.296M230.748 237.722L240.173 241.232L245.279 243.886L235.133 257.453L202.587 284.617L230.25 248.588L219.409 244.296M257.777 225.318L271.705 218.029M257.777 225.318L265.075 232.616L263.019 239.19L252.519 255.28L233.625 267.828L248.287 250.87V237.722L244.608 231.185M289.912 208.5L321.325 192.433M289.912 208.5L285.527 219.462L278.95 240.634L251.921 264.03L271.705 240.637V218.029M289.912 208.5L271.705 218.029M321.325 192.433L323.337 193.895L329.106 198.655M386.402 145.679L401.719 134.106M326.269 206.269L342.776 214.654M401.719 134.106L406.675 145.679L413.019 146.789L420 152.414M190.962 281.3L162.796 318.065L116.423 346.703L93.7214 348.252L103.039 330.194L85.5291 327.771L96.6637 310.694L78.606 306.136L87.8156 293.02L72.5771 289.521V274.809L109.133 244.296L131.95 222.215L156.21 202.627L194.717 275.3L190.962 281.3ZM496.664 131.825L517.075 125.98V135.452L500.296 157.334L490.817 163.183H483.514L479.147 156.633L490.847 135.482L496.664 131.825ZM490.766 163.24L483.481 172.677L468.2 177.051L463.827 163.213L468.206 152.264L475.498 142.783L490.756 135.526L479.08 156.636L483.483 163.24H490.766ZM463.769 163.22L468.142 177.058H447.719L443.347 166.876L447.721 157.38L468.133 152.292L463.766 163.211L463.769 163.22ZM511.998 80.6239L528.087 87.2016L524.46 91.5899L536.106 95.9727L538.486 100.405L550.779 114.981L555.062 125.958L558.715 146.777L562.367 167.596L567.865 156.604L557.986 109.144L542.762 91.5899L533.179 82.147L520.046 75.5732L511.998 80.6239Z" stroke="#8B98A9" stroke-width="0.581538"/>
</g>
<path d="M387.953 189.713L391.069 199.579" stroke="#8B98A9" stroke-width="0.581538"/>
<path d="M396.924 224.732L397.89 229.708L398.857 234.684L405.52 237.338M409.732 199.982L419.453 199.665" stroke="#8B98A9" stroke-width="0.581538"/>
<path d="M271.615 218.04L285.346 219.944" stroke="#8B98A9" stroke-width="0.581538"/>
<path d="M248.223 237.886L265.155 232.665" stroke="#8B98A9" stroke-width="0.581538"/>
<path d="M271.586 240.8H278.74" stroke="#8B98A9" stroke-width="0.581538"/>
<path d="M230.336 248.444L238.355 252.886" stroke="#8B98A9" stroke-width="0.581538"/>
<path d="M229.73 249.194L239.884 241.117" stroke="#8B98A9" stroke-width="0.581538"/>
<path d="M346.992 202.694L334.328 189.598V198.886L346.992 208.492V202.694Z" stroke="#8B98A9" stroke-width="0.812308"/>
<path d="M358.732 194.357L352.703 196.261L366.319 204.8L358.732 194.357Z" stroke="#8B98A9" stroke-width="0.812308"/>
<path d="M366.319 222.425L352.703 208.492L349.213 213.454L366.319 222.425Z" stroke="#8B98A9" stroke-width="0.812308"/>
<path d="M328.732 198.54L326.424 206.617" stroke="#8B98A9" stroke-width="0.812308"/>
<path d="M342.664 214.463L343.039 223.752" stroke="#8B98A9" stroke-width="0.812308"/>
<path d="M513 42.8271L516.596 55.501L529.673 61.433" stroke="#8B98A9" stroke-width="0.581538"/>
<path d="M538.759 32.1252L545.711 43.4618L543.172 51.6542L532.961 58.6639" stroke="#8B98A9" stroke-width="0.581538"/>
<path d="M535.934 17.2693L547.616 26.4424L550.905 35.7598L547.616 40.1444" stroke="#8B98A9" stroke-width="0.581538"/>
<path d="M411.953 147.078L437.222 135.539L454.876 127.693L473.828 117.366L494.222 105.712L505.386 92.3274L513.52 94.7793L515.857 104.27L511.184 111.193L501.665 117.366L495.347 123.568L484.53 127.116L476.165 134.472L463.357 139.837L454.876 145.289L443.511 148.52L435.492 151.203L427.069 152.01" stroke="#8B98A9" stroke-width="0.867692"/>
<path d="M505.385 92.991L504.981 103.924M504.981 103.924L515.827 104.27M504.981 103.924L494.336 105.712L489.923 115.808M504.981 103.924L501.663 117.424L489.923 115.808M489.923 115.808L484.644 127.001L469.933 127.145M489.923 115.808L473.913 117.28L469.933 127.145M469.933 127.145L455.135 127.607L448.99 138.164M469.933 127.145L463.442 139.837L448.99 138.164M448.99 138.164L443.51 148.578L431.365 144.337M448.99 138.164L437.019 135.568L431.365 144.337M431.365 144.337L427.183 151.866M431.365 144.337L412.875 146.818" stroke="#8B98A9" stroke-width="0.581538"/>
<path d="M395.684 72.4523L410.453 77.6158M410.453 77.6158L419.626 64.5773L436.01 69.9427M410.453 77.6158L425.914 83.9043M410.453 77.6158L397.616 92.9332L415.097 93.539L425.914 83.9043M436.01 69.9427L447.059 56.0676L462.809 62.385M436.01 69.9427L453.462 75.8851M436.01 69.9427L425.914 83.9043M462.809 62.385L472.905 51.0195L490.559 58.5773M462.809 62.385L478.645 69.9427M462.809 62.385L453.462 75.8851M490.559 58.5773L500.309 49.1445M490.559 58.5773L478.645 69.9427M490.559 58.5773L510.578 63.3658L495.895 72.4523L478.645 69.9427M478.645 69.9427L469.27 78.3081L453.462 75.8851M453.462 75.8851L441.924 85.5774L425.914 83.9043" stroke="#8B98A9" stroke-width="0.581538"/>
<path d="M534.837 105.28L523.933 114.078L516.231 120.337L495.462 126.684L488.251 131.241L472.962 138.943L465.087 147.943L446.568 152.184L431.049 156.251" stroke="#8B98A9" stroke-width="0.581538"/>
<path d="M182.74 189.741L217.038 186.251M217.038 186.251L194.769 221.472L225.606 217.088M217.038 186.251H250.961M217.038 186.251L244.384 143.212L277.961 148.491M225.606 217.088L208.558 251.184M225.606 217.088L250.961 186.251M225.606 217.088L257.913 225.309L284.538 188.27M250.961 186.251L277.961 148.491M250.961 186.251L284.538 188.27M277.961 148.491L306.606 109.635M277.961 148.491L311.365 152.328M284.538 188.27L321.375 192.453M284.538 188.27L311.365 152.328M306.606 109.635L311.365 152.328M306.606 109.635L337.067 118.577M311.365 152.328L321.375 192.453M311.365 152.328L337.067 118.577M311.365 152.328L342.923 156.164M321.375 192.453L342.923 156.164M342.923 156.164L359.509 126.424M342.923 156.164L367.356 163.808M359.509 126.424L337.067 118.577M359.509 126.424L382.125 131.356M359.509 126.424L373.932 99.4235M337.067 118.577L354.952 87.7408L373.932 99.4235M382.125 131.356L367.356 163.808M382.125 131.356L391.615 107.27L373.932 99.4235M382.125 131.356L401.106 134.27M367.356 163.808L393.577 173.876L386.394 145.26L406.615 145.808L417.75 160.982M373.932 99.4235L387.432 74.4426" stroke="#8B98A9" stroke-width="0.692308"/>
<path d="M161.683 212.848L138.347 243.685M138.347 243.685L167.164 223.434M138.347 243.685L120.462 279.8L158.048 277.435M158.048 277.435L180.664 249.165M158.048 277.435L187.414 261.915" stroke="#8B98A9" stroke-width="0.581538"/>
<path d="M176.856 207.973L156 202.694L167.221 192.915L182.192 189.713L176.856 207.973ZM176.856 207.973L195.26 221.502M176.856 207.973L167.221 224.156L184.644 229.261M195.26 221.502L184.644 229.261M195.26 221.502V247.694M184.644 229.261L180.548 248.992L195.26 247.694M195.26 247.694L208.587 251.473L204.981 263.56L194.625 275.387L195.26 247.694Z" stroke="#8B98A9" stroke-width="0.692308"/>
<path d="M398.049 93.2505L391.933 107.414L404.856 122.126M398.049 93.2505L387.779 74.9331M398.049 93.2505L404.856 122.126M398.049 93.2505L394.991 72.1638M404.856 122.126L401.106 134.183L413.164 147.107L404.856 122.126Z" stroke="#8B98A9" stroke-width="0.692308"/>
<ellipse cx="132.202" cy="222.396" rx="2.74038" ry="2.7404" fill="#F7F7F7"/>
<ellipse cx="108.778" cy="243.8" rx="2.74038" ry="2.7404" fill="#F7F7F7"/>
<ellipse cx="156.462" cy="203.04" rx="1.73077" ry="1.73078" fill="#F7F7F7"/>
<ellipse cx="161.481" cy="318.598" rx="1.73077" ry="1.73078" fill="#F7F7F7"/>
<path d="M196.442 274.925C196.442 275.881 195.667 276.656 194.711 276.656C193.755 276.656 192.98 275.881 192.98 274.925C192.98 273.969 193.755 273.194 194.711 273.194C195.667 273.194 196.442 273.969 196.442 274.925Z" fill="#F7F7F7"/>
<path d="M206.77 263.444C206.77 264.4 205.995 265.175 205.039 265.175C204.083 265.175 203.309 264.4 203.309 263.444C203.309 262.488 204.083 261.713 205.039 261.713C205.995 261.713 206.77 262.488 206.77 263.444Z" fill="#F7F7F7"/>
<path d="M183.288 248.761C183.288 250.275 182.061 251.502 180.548 251.502C179.035 251.502 177.808 250.275 177.808 248.761C177.808 247.248 179.035 246.021 180.548 246.021C182.061 246.021 183.288 247.248 183.288 248.761Z" fill="#F7F7F7"/>
<path d="M170.423 223.781C170.423 225.294 169.196 226.521 167.683 226.521C166.169 226.521 164.942 225.294 164.942 223.781C164.942 222.267 166.169 221.04 167.683 221.04C169.196 221.04 170.423 222.267 170.423 223.781Z" fill="#F7F7F7"/>
<path d="M139.616 243.31C139.616 244.266 138.841 245.04 137.885 245.04C136.929 245.04 136.154 244.266 136.154 243.31C136.154 242.354 136.929 241.579 137.885 241.579C138.841 241.579 139.616 242.354 139.616 243.31Z" fill="#F7F7F7"/>
<path d="M122.077 279.483C122.077 280.439 121.302 281.214 120.346 281.214C119.39 281.214 118.615 280.439 118.615 279.483C118.615 278.527 119.39 277.752 120.346 277.752C121.302 277.752 122.077 278.527 122.077 279.483Z" fill="#F7F7F7"/>
<path d="M159.751 277.06C159.751 278.016 158.976 278.79 158.02 278.79C157.064 278.79 156.289 278.016 156.289 277.06C156.289 276.104 157.064 275.329 158.02 275.329C158.976 275.329 159.751 276.104 159.751 277.06Z" fill="#F7F7F7"/>
<path d="M169.443 192.944C169.443 193.9 168.668 194.675 167.712 194.675C166.756 194.675 165.981 193.9 165.981 192.944C165.981 191.988 166.756 191.213 167.712 191.213C168.668 191.213 169.443 191.988 169.443 192.944Z" fill="#F7F7F7"/>
<path d="M187.327 229.261C187.327 230.775 186.101 232.002 184.587 232.002C183.074 232.002 181.847 230.775 181.847 229.261C181.847 227.748 183.074 226.521 184.587 226.521C186.101 226.521 187.327 227.748 187.327 229.261Z" fill="#F7F7F7"/>
<path d="M197.942 247.896C197.942 249.41 196.715 250.637 195.201 250.637C193.688 250.637 192.461 249.41 192.461 247.896C192.461 246.383 193.688 245.156 195.201 245.156C196.715 245.156 197.942 246.383 197.942 247.896Z" fill="#F7F7F7"/>
<path d="M210.346 251.213C210.346 252.169 209.571 252.944 208.616 252.944C207.66 252.944 206.885 252.169 206.885 251.213C206.885 250.258 207.66 249.483 208.616 249.483C209.571 249.483 210.346 250.258 210.346 251.213Z" fill="#F7F7F7"/>
<path d="M179.712 208.03C179.712 209.544 178.485 210.771 176.972 210.771C175.458 210.771 174.231 209.544 174.231 208.03C174.231 206.517 175.458 205.29 176.972 205.29C178.485 205.29 179.712 206.517 179.712 208.03Z" fill="#F7F7F7"/>
<ellipse cx="230.422" cy="237.137" rx="1.73077" ry="1.73078" fill="#F7F7F7"/>
<ellipse cx="257.596" cy="225.425" rx="1.73077" ry="1.73078" fill="#F7F7F7"/>
<ellipse cx="290.02" cy="209.04" rx="1.73077" ry="1.73078" fill="#F7F7F7"/>
<ellipse cx="321.405" cy="192.252" rx="1.73077" ry="1.73078" fill="#F7F7F7"/>
<ellipse cx="346.961" cy="172.867" rx="1.73077" ry="1.73078" fill="#F7F7F7"/>
<ellipse cx="367.559" cy="163.751" rx="1.73077" ry="1.73078" fill="#F7F7F7"/>
<ellipse cx="386.596" cy="145.578" rx="1.73077" ry="1.73078" fill="#F7F7F7"/>
<ellipse cx="401.309" cy="134.097" rx="1.73077" ry="1.73078" fill="#F7F7F7"/>
<ellipse cx="387.809" cy="74.8465" rx="1.73077" ry="1.73078" fill="#F7F7F7"/>
<path d="M373.153 80.8314C373.153 81.7872 372.378 82.5621 371.422 82.5621C370.466 82.5621 369.691 81.7872 369.691 80.8314C369.691 79.8755 370.466 79.1006 371.422 79.1006C372.378 79.1006 373.153 79.8755 373.153 80.8314Z" fill="#F7F7F7"/>
<ellipse cx="355.385" cy="87.8275" rx="1.73077" ry="1.73078" fill="#F7F7F7"/>
<ellipse cx="334.905" cy="96.8275" rx="1.73077" ry="1.73078" fill="#F7F7F7"/>
<ellipse cx="307.096" cy="109.52" rx="1.73077" ry="1.73078" fill="#F7F7F7"/>
<path d="M276.202 125.818C276.202 126.774 275.427 127.549 274.471 127.549C273.515 127.549 272.74 126.774 272.74 125.818C272.74 124.862 273.515 124.087 274.471 124.087C275.427 124.087 276.202 124.862 276.202 125.818Z" fill="#F7F7F7"/>
<ellipse cx="244.5" cy="142.694" rx="1.73077" ry="1.73078" fill="#F7F7F7"/>
<ellipse cx="212.885" cy="163.694" rx="1.73077" ry="1.73078" fill="#F7F7F7"/>
<ellipse cx="182.308" cy="189.771" rx="1.73077" ry="1.73078" fill="#F7F7F7"/>
<path d="M196.672 221.502C196.672 222.458 195.898 223.233 194.942 223.233C193.986 223.233 193.211 222.458 193.211 221.502C193.211 220.546 193.986 219.771 194.942 219.771C195.898 219.771 196.672 220.546 196.672 221.502Z" fill="#F7F7F7"/>
<ellipse cx="250.789" cy="186.021" rx="1.73077" ry="1.73078" fill="#F7F7F7"/>
<ellipse cx="311.078" cy="152.501" rx="1.73077" ry="1.73078" fill="#F7F7F7"/>
<ellipse cx="359.828" cy="126.193" rx="1.73077" ry="1.73078" fill="#F7F7F7"/>
<path d="M393.52 107.501C393.52 108.457 392.745 109.232 391.789 109.232C390.833 109.232 390.059 108.457 390.059 107.501C390.059 106.545 390.833 105.77 391.789 105.77C392.745 105.77 393.52 106.545 393.52 107.501Z" fill="#F7F7F7"/>
<path d="M414.751 146.732C414.751 147.688 413.976 148.463 413.02 148.463C412.064 148.463 411.289 147.688 411.289 146.732C411.289 145.776 412.064 145.001 413.02 145.001C413.976 145.001 414.751 145.776 414.751 146.732Z" fill="#F7F7F7"/>
<path d="M421.443 152.444C421.443 153.24 420.797 153.886 420.001 153.886C419.204 153.886 418.559 153.24 418.559 152.444C418.559 151.647 419.204 151.001 420.001 151.001C420.797 151.001 421.443 151.647 421.443 152.444Z" fill="#F7F7F7"/>
<path d="M406.501 121.866C406.501 122.822 405.726 123.597 404.77 123.597C403.814 123.597 403.039 122.822 403.039 121.866C403.039 120.91 403.814 120.135 404.77 120.135C405.726 120.135 406.501 120.91 406.501 121.866Z" fill="#F7F7F7"/>
<path d="M399.577 93.0198C399.577 93.9757 398.802 94.7506 397.846 94.7506C396.89 94.7506 396.115 93.9757 396.115 93.0198C396.115 92.064 396.89 91.2891 397.846 91.2891C398.802 91.2891 399.577 92.064 399.577 93.0198Z" fill="#F7F7F7"/>
<path d="M396.981 71.731C396.981 72.6869 396.206 73.4618 395.25 73.4618C394.294 73.4618 393.52 72.6869 393.52 71.731C393.52 70.7751 394.294 70.0002 395.25 70.0002C396.206 70.0002 396.981 70.7751 396.981 71.731Z" fill="#F7F7F7"/>
<path d="M526.27 32.3848C526.27 33.3407 525.495 34.1156 524.539 34.1156C523.583 34.1156 522.809 33.3407 522.809 32.3848C522.809 31.4289 523.583 30.6541 524.539 30.6541C525.495 30.6541 526.27 31.4289 526.27 32.3848Z" fill="#F7F7F7"/>
<path d="M437.77 70.0003C437.77 70.9562 436.995 71.7311 436.039 71.7311C435.083 71.7311 434.309 70.9562 434.309 70.0003C434.309 69.0444 435.083 68.2695 436.039 68.2695C436.995 68.2695 437.77 69.0444 437.77 70.0003Z" fill="#F7F7F7"/>
<path d="M491.712 58.4617C491.712 59.4176 490.937 60.1925 489.981 60.1925C489.025 60.1925 488.25 59.4176 488.25 58.4617C488.25 57.5059 489.025 56.731 489.981 56.731C490.937 56.731 491.712 57.5059 491.712 58.4617Z" fill="#F7F7F7"/>
<ellipse cx="417.981" cy="161.501" rx="1.73077" ry="1.73078" fill="#F7F7F7"/>
<path d="M395.596 174.425C395.596 175.381 394.821 176.155 393.866 176.155C392.91 176.155 392.135 175.381 392.135 174.425C392.135 173.469 392.91 172.694 393.866 172.694C394.821 172.694 395.596 173.469 395.596 174.425Z" fill="#F7F7F7"/>
<ellipse cx="431.481" cy="156.482" rx="1.73077" ry="1.73078" fill="#F7F7F7"/>
<ellipse cx="447.289" cy="157.29" rx="1.73077" ry="1.73078" fill="#F7F7F7"/>
<ellipse cx="467.885" cy="152.271" rx="1.73077" ry="1.73078" fill="#F7F7F7"/>
<ellipse cx="490.328" cy="135.655" rx="1.73077" ry="1.73078" fill="#F7F7F7"/>
<ellipse cx="516.75" cy="126.02" rx="1.73077" ry="1.73078" fill="#F7F7F7"/>
<ellipse cx="536.02" cy="104.732" rx="1.73077" ry="1.73078" fill="#F7F7F7"/>
<ellipse cx="451.874" cy="172.896" rx="3.66346" ry="1.52885" fill="#F7F7F7"/>
<ellipse cx="471.548" cy="171.338" rx="3.66346" ry="1.52885" fill="#F7F7F7"/>
<ellipse cx="487.644" cy="158.242" rx="3.66346" ry="1.52885" fill="#F7F7F7"/>
<ellipse cx="489.75" cy="116.039" rx="1.73077" ry="1.73078" fill="#F7F7F7"/>
<ellipse cx="504.922" cy="104.039" rx="1.73077" ry="1.73078" fill="#F7F7F7"/>
<ellipse cx="469.846" cy="127.174" rx="1.73077" ry="1.73078" fill="#F7F7F7"/>
<ellipse cx="449.02" cy="138.309" rx="1.73077" ry="1.73078" fill="#F7F7F7"/>
<ellipse cx="431.309" cy="144.54" rx="1.73077" ry="1.73078" fill="#F7F7F7"/>
<ellipse cx="496.558" cy="81.5965" rx="2.88461" ry="2.88463" fill="#F7F7F7"/>
<path d="M476.711 85.6639C476.711 87.2571 475.419 88.5486 473.826 88.5486C472.233 88.5486 470.941 87.2571 470.941 85.6639C470.941 84.0708 472.233 82.7793 473.826 82.7793C475.419 82.7793 476.711 84.0708 476.711 85.6639Z" fill="#F7F7F7" stroke="#F7F7F7" stroke-width="15"/>
<g filter="url(#filter1_d)">
<ellipse cx="456.289" cy="99.1351" rx="2.88461" ry="2.88463" fill="#F7F7F7"/>
</g>
<g filter="url(#filter2_d)">
<ellipse cx="441.289" cy="108.655" rx="2.88461" ry="2.88463" fill="#F7F7F7"/>
</g>
<ellipse cx="430.443" cy="96.8275" rx="2.88461" ry="2.88463" fill="#F7F7F7"/>
<ellipse cx="416.424" cy="112.116" rx="2.88461" ry="2.88463" fill="#F7F7F7"/>
<ellipse cx="556.905" cy="54.0772" rx="2.30769" ry="2.3077" fill="#CECECE"/>
<ellipse cx="582.577" cy="48.3656" rx="2.30769" ry="2.3077" fill="#CECECE"/>
<ellipse cx="608.999" cy="40.0003" rx="2.30769" ry="2.3077" fill="#CECECE"/>
<ellipse cx="634.499" cy="29.0387" rx="2.30769" ry="2.3077" fill="#CECECE"/>
<ellipse cx="41.5389" cy="320.791" rx="2.88461" ry="2.88463" fill="#998AA3"/>
<ellipse cx="61.0965" cy="329.041" rx="2.88461" ry="2.88463" fill="#998AA3"/>
<ellipse cx="66.9235" cy="301.521" rx="3.46154" ry="3.46156" fill="#CECECE"/>
<ellipse cx="52.1541" cy="310.406" rx="2.88461" ry="2.88463" fill="#998AA3"/>
<ellipse cx="31.4998" cy="304.983" rx="2.88461" ry="2.88463" fill="#898AA3"/>
<ellipse cx="34.9034" cy="332.964" rx="2.30769" ry="2.3077" fill="#898AA3"/>
<ellipse cx="21.1153" cy="322.522" rx="2.30769" ry="2.3077" fill="#898AA3"/>
<ellipse cx="18.3458" cy="342.195" rx="2.30769" ry="2.3077" fill="#898AA3"/>
<ellipse cx="51.4901" cy="341.243" rx="2.50961" ry="2.50963" fill="#998AA3"/>
<ellipse cx="13.1542" cy="437.734" rx="1.44231" ry="1.44232" fill="#898AA3"/>
<ellipse cx="4.32707" cy="426.08" rx="1.44231" ry="1.44232" fill="#898AA3"/>
<ellipse cx="1.44231" cy="412.868" rx="1.44231" ry="1.44232" fill="#898AA3"/>
<ellipse cx="7.32707" cy="401.388" rx="1.44231" ry="1.44232" fill="#898AA3"/>
<ellipse cx="14.5966" cy="391.06" rx="1.44231" ry="1.44232" fill="#898AA3"/>
<ellipse cx="46.0678" cy="355.897" rx="2.16346" ry="2.16347" fill="#898AA3"/>
<ellipse cx="30.8655" cy="376.003" rx="1.73077" ry="1.73078" fill="#898AA3"/>
<ellipse cx="22.5575" cy="384.08" rx="1.44231" ry="1.44232" fill="#898AA3"/>
<ellipse cx="33.0287" cy="346.32" rx="2.16346" ry="2.16347" fill="#898AA3"/>
<ellipse cx="29.3363" cy="361.378" rx="2.16346" ry="2.16347" fill="#898AA3"/>
<ellipse cx="16.7592" cy="358.493" rx="2.16346" ry="2.16347" fill="#898AA3"/>
<ellipse cx="17.9131" cy="371.82" rx="1.875" ry="1.87501" fill="#898AA3"/>
<ellipse cx="43.7015" cy="369.166" rx="2.16346" ry="2.16347" fill="#898AA3"/>
<ellipse cx="90.5482" cy="367.782" rx="2.16346" ry="2.16347" fill="#998AA3"/>
<ellipse cx="74.4515" cy="369.166" rx="2.16346" ry="2.16347" fill="#998AA3"/>
<ellipse cx="59.7982" cy="366.974" rx="2.16346" ry="2.16347" fill="#898AA3"/>
<ellipse cx="63.6053" cy="355.551" rx="2.50961" ry="2.50963" fill="#998AA3"/>
<ellipse cx="59.9996" cy="279.656" rx="3.46154" ry="3.46156" fill="#CECECE"/>
<ellipse cx="102.577" cy="359.214" rx="3.46154" ry="3.46156" fill="#CECECE"/>
<ellipse cx="45.8072" cy="291.194" rx="3.46154" ry="3.46156" fill="#998AA3"/>
<ellipse cx="85.8463" cy="338.733" rx="3.46154" ry="3.46156" fill="#CECECE"/>
<ellipse cx="81.5766" cy="356.618" rx="2.59615" ry="2.59617" fill="#998AA3"/>
<ellipse cx="75.3463" cy="321.368" rx="3.46154" ry="3.46156" fill="#CECECE"/>
<ellipse cx="71.8842" cy="343.753" rx="2.59615" ry="2.59617" fill="#998AA3"/>
<ellipse cx="262.673" cy="314.733" rx="1.44231" ry="1.44232" fill="#898AA3"/>
<ellipse cx="278.366" cy="316.175" rx="1.44231" ry="1.44232" fill="#898AA3"/>
<ellipse cx="294.029" cy="312.57" rx="2.16346" ry="2.16347" fill="#898AA3"/>
<ellipse cx="310.674" cy="306.829" rx="2.88461" ry="2.88463" fill="#898AA3"/>
<ellipse cx="327.463" cy="295.233" rx="2.88461" ry="2.88463" fill="#898AA3"/>
<ellipse cx="347.596" cy="282.714" rx="2.88461" ry="2.88463" fill="#998AA3"/>
<ellipse cx="360.232" cy="268.175" rx="2.88461" ry="2.88463" fill="#CECECE"/>
<ellipse cx="378.809" cy="255.367" rx="3.46154" ry="3.46156" fill="#CECECE"/>
<ellipse cx="568.731" cy="253.348" rx="1.44231" ry="1.44232" fill="#898AA3"/>
<ellipse cx="579.692" cy="245.04" rx="1.44231" ry="1.44232" fill="#898AA3"/>
<ellipse cx="589.703" cy="233.242" rx="2.16346" ry="2.16347" fill="#898AA3"/>
<ellipse cx="599.713" cy="219.425" rx="2.88461" ry="2.88463" fill="#898AA3"/>
<ellipse cx="611.826" cy="203.155" rx="2.88461" ry="2.88463" fill="#898AA3"/>
<ellipse cx="617.596" cy="185.328" rx="2.88461" ry="2.88463" fill="#B2B3BC"/>
<ellipse cx="623.365" cy="169.001" rx="2.88461" ry="2.88463" fill="#CECECE"/>
<ellipse cx="629.712" cy="151.694" rx="3.46154" ry="3.46156" fill="#CECECE"/>
<ellipse cx="410.423" cy="263.098" rx="1.44231" ry="1.44232" fill="#898AA3"/>
<ellipse cx="426.116" cy="264.54" rx="1.44231" ry="1.44232" fill="#898AA3"/>
<ellipse cx="441.779" cy="260.935" rx="2.16346" ry="2.16347" fill="#898AA3"/>
<ellipse cx="458.424" cy="255.194" rx="2.88461" ry="2.88463" fill="#898AA3"/>
<ellipse cx="475.213" cy="243.598" rx="2.88461" ry="2.88463" fill="#998AA3"/>
<ellipse cx="495.346" cy="231.079" rx="2.88461" ry="2.88463" fill="#B2B3BC"/>
<ellipse cx="507.982" cy="216.54" rx="2.88461" ry="2.88463" fill="#CECECE"/>
<ellipse cx="526.559" cy="203.732" rx="3.46154" ry="3.46156" fill="#CECECE"/>
<ellipse cx="441.058" cy="313.002" rx="1.44231" ry="1.44232" fill="#898AA3"/>
<ellipse cx="458.394" cy="311.531" rx="2.16346" ry="2.16347" fill="#898AA3"/>
<ellipse cx="472.615" cy="304.695" rx="2.88461" ry="2.88463" fill="#898AA3"/>
<ellipse cx="490.269" cy="292.694" rx="2.88461" ry="2.88463" fill="#898AA3"/>
<ellipse cx="501.115" cy="273.598" rx="2.88461" ry="2.88463" fill="#898AA3"/>
<ellipse cx="510.865" cy="255.194" rx="2.88461" ry="2.88463" fill="#B2B3BC"/>
<ellipse cx="519.519" cy="240.713" rx="2.88461" ry="2.88463" fill="#F7F7F7"/>
<ellipse cx="528.577" cy="222.598" rx="3.17308" ry="3.17309" fill="#F7F7F7"/>
<path d="M508.903 42.8272C508.903 43.7831 508.128 44.558 507.172 44.558C506.216 44.558 505.441 43.7831 505.441 42.8272C505.441 41.8713 506.216 41.0964 507.172 41.0964C508.128 41.0964 508.903 41.8713 508.903 42.8272Z" fill="#F7F7F7"/>
<path d="M448.731 55.7503C448.731 56.7062 447.956 57.4811 447 57.4811C446.044 57.4811 445.27 56.7062 445.27 55.7503C445.27 54.7944 446.044 54.0195 447 54.0195C447.956 54.0195 448.731 54.7944 448.731 55.7503Z" fill="#F7F7F7"/>
<path d="M421.212 64.3463C421.212 65.3021 420.437 66.077 419.481 66.077C418.525 66.077 417.75 65.3021 417.75 64.3463C417.75 63.3904 418.525 62.6155 419.481 62.6155C420.437 62.6155 421.212 63.3904 421.212 64.3463Z" fill="#F7F7F7"/>
<path d="M474.692 50.8465C474.692 51.8024 473.917 52.5773 472.961 52.5773C472.005 52.5773 471.23 51.8024 471.23 50.8465C471.23 49.8906 472.005 49.1157 472.961 49.1157C473.917 49.1157 474.692 49.8906 474.692 50.8465Z" fill="#F7F7F7"/>
<path d="M537.692 17.2694C537.692 18.2252 536.917 19.0001 535.961 19.0001C535.005 19.0001 534.23 18.2252 534.23 17.2694C534.23 16.3135 535.005 15.5386 535.961 15.5386C536.917 15.5386 537.692 16.3135 537.692 17.2694Z" fill="#F7F7F7"/>
<defs>
<filter id="filter0_d" x="68.2861" y="0.620117" width="595.029" height="355.957" filterUnits="userSpaceOnUse" color-interpolation-filters="sRGB">
<feFlood flood-opacity="0" result="BackgroundImageFix"/>
<feColorMatrix in="SourceAlpha" type="matrix" values="0 0 0 0 0 0 0 0 0 0 0 0 0 0 0 0 0 0 127 0"/>
<feOffset dy="4"/>
<feGaussianBlur stdDeviation="2"/>
<feColorMatrix type="matrix" values="0 0 0 0 0 0 0 0 0 0 0 0 0 0 0 0 0 0 0.25 0"/>
<feBlend mode="normal" in2="BackgroundImageFix" result="effect1_dropShadow"/>
<feBlend mode="normal" in="SourceGraphic" in2="effect1_dropShadow" result="shape"/>
</filter>
<filter id="filter1_d" x="449.404" y="96.2505" width="13.7692" height="13.7693" filterUnits="userSpaceOnUse" color-interpolation-filters="sRGB">
<feFlood flood-opacity="0" result="BackgroundImageFix"/>
<feColorMatrix in="SourceAlpha" type="matrix" values="0 0 0 0 0 0 0 0 0 0 0 0 0 0 0 0 0 0 127 0"/>
<feOffset dy="4"/>
<feGaussianBlur stdDeviation="2"/>
<feColorMatrix type="matrix" values="0 0 0 0 0 0 0 0 0 0 0 0 0 0 0 0 0 0 0.25 0"/>
<feBlend mode="normal" in2="BackgroundImageFix" result="effect1_dropShadow"/>
<feBlend mode="normal" in="SourceGraphic" in2="effect1_dropShadow" result="shape"/>
</filter>
<filter id="filter2_d" x="434.404" y="105.77" width="13.7692" height="13.7693" filterUnits="userSpaceOnUse" color-interpolation-filters="sRGB">
<feFlood flood-opacity="0" result="BackgroundImageFix"/>
<feColorMatrix in="SourceAlpha" type="matrix" values="0 0 0 0 0 0 0 0 0 0 0 0 0 0 0 0 0 0 127 0"/>
<feOffset dy="4"/>
<feGaussianBlur stdDeviation="2"/>
<feColorMatrix type="matrix" values="0 0 0 0 0 0 0 0 0 0 0 0 0 0 0 0 0 0 0.25 0"/>
<feBlend mode="normal" in2="BackgroundImageFix" result="effect1_dropShadow"/>
<feBlend mode="normal" in="SourceGraphic" in2="effect1_dropShadow" result="shape"/>
</filter>
</defs>
</svg>
