<?xml version="1.0" encoding="utf-8"?>
<!-- Generator: Adobe Illustrator 25.0.0, SVG Export Plug-In . SVG Version: 6.00 Build 0)  -->
<svg version="1.1"
	 id="svg2" xmlns:cc="http://creativecommons.org/ns#" xmlns:dc="http://purl.org/dc/elements/1.1/" xmlns:rdf="http://www.w3.org/1999/02/22-rdf-syntax-ns#" xmlns:svg="http://www.w3.org/2000/svg"
	 xmlns="http://www.w3.org/2000/svg" xmlns:xlink="http://www.w3.org/1999/xlink" x="0px" y="0px" viewBox="0 0 755 416"
	 style="enable-background:new 0 0 755 416;" xml:space="preserve">
<style type="text/css">
	.st0{fill:#8b98a9;}
	.st1{clip-path:url(#SVGID_2_);}
	.st2{fill:#8b98a9;stroke:#FFFFFF;stroke-width:1.3333;stroke-miterlimit:13.3333;}
</style>
<g id="g10" transform="matrix(1.3333333,0,0,-1.3333333,0,565.68533)">
	<g id="g12">
		<g id="g14">
			<g id="g20">
				<g id="g22">
					<path id="path30" class="st0" d="M379.9,387.5v-0.2V335c0-23.9-19.3-43.2-43.2-43.2l0,0h-7.3c-21.9,0-40.4,16.5-42.9,38.3l0,0
						c-1-15.2-6.8-29.7-16.6-41.4l0,0c13.5-18,34.7-28.5,57.2-28.4l0,0h12.2c39.8,0,72.1,32.3,72.1,72l0,0v87
						C393.9,419.1,379.9,404.9,379.9,387.5"/>
				</g>
			</g>
		</g>
	</g>
	<g id="g32">
		<g id="g34">
			<g id="g40">
				<g id="g42">
					<path id="path50" class="st0" d="M214.6,419.2L214.6,419.2h-83.9c0.3-17.4,14.5-31.2,31.9-31.1l0,0h0.2h49.1
						c23.9,0,43.2-19.3,43.2-43.2l0,0v-7.3c0-23.8-19.3-43.1-43.1-43.1l0,0h-0.1h-49.3c-17.4,0-31.6-14-31.9-31.5l0,0h83.9
						c39.8,0,72,32.2,72.1,72l0,0v0v12.2C286.6,386.9,254.3,419.1,214.6,419.2L214.6,419.2C214.6,419.2,214.6,419.2,214.6,419.2"/>
				</g>
			</g>
		</g>
	</g>
	<g id="g52">
		<g id="g54">
			<g id="g60">
				<g id="g62">
					<path id="path70" class="st0" d="M189.4,340.2L189.4,340.2c0-0.1,0-0.2,0-0.3l0,0c0-0.1,0-0.2,0-0.3l0,0h0
						c0.5-7.4,6.6-13.1,14.1-13.1l0,0h9.6v26.8l-9.3,0h-0.3c0,0-0.1,0-0.1,0l0,0C196,353.3,189.9,347.5,189.4,340.2"/>
				</g>
			</g>
		</g>
	</g>
	<g id="g72">
		<g>
			<defs>
				<rect id="SVGID_1_" x="-232.7" y="-16.7" width="1033.2" height="565.7"/>
			</defs>
			<clipPath id="SVGID_2_">
				<use xlink:href="#SVGID_1_"  style="overflow:visible;"/>
			</clipPath>
			<g id="g74" class="st1">
				<g id="g80" transform="translate(173.834,142.5342)">
					<path id="path82" class="st0" d="M-103.5,54c0,16.9-5.3,20-14.9,20h-41.4V28.4h40.2c9.6,0,16.2,2.1,16.2,19.6V54z M-167.8,80.4
						h47.3c19.6,0,25-6.1,25-29.2c0-21.5-5.3-29.2-25.2-29.2h-47V80.4z"/>
				</g>
				<g id="g84" transform="translate(237.0879,123.3877)">
					<path id="path86" class="st0" d="M-103.5,54c0,5.7-5,6.4-15.7,6.4h-10.7c-9,0-11.5-1.3-11.5-6.5v-1.3c0-4.6,1.6-6.5,11.1-6.5
						h9.2c12.6,0,17.5,0.9,17.5,6.1V54z M-103.5,45.2h-0.2c-1.9-3.7-4-4.8-14.7-4.8H-135c-10.5,0-13.2,4.6-13.2,12.4v2.7
						c0,9.4,6.6,10.5,18.7,10.5h11.1c9,0,12.3-1,14.7-4.9h0.2v7.8c0,7.4-4.7,8.4-15.4,8.4H-129c-8.7,0-10.4-2.1-10.4-5.5v-1.5h-6.9
						v2c0,7.5,4.8,10.6,17.2,10.6h11c12.9,0,21.7-1.9,21.7-14.2V41.1h-6.9L-103.5,45.2z"/>
				</g>
				<g id="g88" transform="translate(260.0283,146.0107)">
					<path id="path90" class="st0" d="M-103.5,54h-9v5.7h9v9.8h6.9v-9.8H-69V54h-27.5V33.5c0-7.7,2.7-10,10.3-10h2.2
						c9.2,0,10.7,1.9,10.7,10.6v3.1h5.7v-4.5c0-8.2-0.8-14.8-15.8-14.8h-3.8c-13,0-16.1,6.3-16.1,13L-103.5,54z"/>
				</g>
				<g id="g92" transform="translate(346.793,123.3877)">
					<path id="path94" class="st0" d="M-103.5,54c0,5.7-5,6.4-15.7,6.4h-10.7c-9,0-11.5-1.3-11.5-6.5v-1.3c0-4.6,1.6-6.5,11.1-6.5
						h9.2c12.6,0,17.5,0.9,17.5,6.1L-103.5,54z M-103.5,45.2h-0.2c-1.9-3.7-4-4.8-14.7-4.8H-135c-10.5,0-13.2,4.6-13.2,12.4v2.7
						c0,9.4,6.6,10.5,18.7,10.5h11.2c9,0,12.3-1,14.7-4.9h0.2v7.8c0,7.4-4.7,8.4-15.4,8.4H-129c-8.7,0-10.4-2.1-10.4-5.5v-1.5h-6.9
						v2c0,7.5,4.8,10.6,17.2,10.6h11c12.9,0,21.6-1.9,21.6-14.2V41.1h-6.9L-103.5,45.2z"/>
				</g>
				<g id="g96" transform="translate(365.5312,168.9521)">
					<path id="path98" class="st0" d="M-103.5,54h17.9V20.2c0-7.4,2.7-10.3,10-10.3h17.8c7.3,0,10,2.9,10,10.3V54h17.9V16.4
						c0-14.5-7.5-21.5-24-21.5h-25.7c-16.5,0-24,6.9-24,21.5L-103.5,54z"/>
				</g>
				<g id="g100" transform="translate(450.5957,151.6631)">
					<path id="path102" class="st0" d="M-103.5,54H-88v-6.6h0.2c2.7,5.7,8.2,7.3,16.5,7.3c9.6,0,23-0.4,23-18.2V12.8h-15.5v23.7
						c0,4-3.2,6.1-10,6.1h-3.6c-6.6,0-10.6-3.1-10.6-9V12.8h-15.5V54z"/>
				</g>
				<path id="path104" class="st0" d="M429.3,164.5h-15.5v41.2h15.5V164.5z M429.3,210.8h-15.5V223h15.5V210.8z"/>
				<g id="g106" transform="translate(558.8496,129.123)">
					<path id="path108" class="st0" d="M-103.5,54c0-5.9,3.5-7.7,10.6-7.7h3.7c10,0,12,1.3,12,6.8v5.7c0,5.5-1.9,6.8-12,6.8h-3.7
						c-7.1,0-10.6-1.8-10.6-7.7L-103.5,54z M-119,60.9c0,13.6,9.1,16.3,17,16.3h23.2c7.9,0,17-2.7,17-16.3V51
						c0-13.6-9.1-16.3-17-16.3H-102c-7.9,0-17,2.7-17,16.3V60.9z"/>
				</g>
				<g id="g110" transform="translate(610.2266,151.6631)">
					<path id="path112" class="st0" d="M-103.5,54H-88v-6.6h0.2c2.7,5.7,8.2,7.3,16.5,7.3c9.6,0,23-0.4,23-18.2V12.8h-15.5v23.7
						c0,4-3.2,6.1-10,6.1h-3.6c-6.6,0-10.6-3.1-10.6-9V12.8h-15.5L-103.5,54z"/>
				</g>
				<g id="g114" transform="translate(191.9873,74.7324)">
					<path id="path116" class="st0" d="M-103.5,54h9v-1.7h-9v-6.5h9.4v-1.8h-11.4v17.8h11.4V60h-9.4V54z"/>
				</g>
				<g id="g118" transform="translate(224.249,82.543)">
					<path id="path120" class="st0" d="M-103.5,54l-6.3-17.8h-2.9L-119,54h2.2l5.6-16.2h0.1l5.5,16.2H-103.5z"/>
				</g>
				<g id="g122" transform="translate(233.7202,74.7324)">
					<path id="path124" class="st0" d="M-103.5,54h9v-1.7h-9v-6.5h9.4v-1.8h-11.4v17.8h11.4V60h-9.4V54z"/>
				</g>
				<g id="g126" transform="translate(260.4678,73.668)">
					<path id="path128" class="st0" d="M-103.5,54c3.1,0.1,3.5,1,3.5,4c0,2.3-0.3,3.1-3.5,3.1h-6.2V54H-103.5z M-109.7,45.1h-2v17.8
						h8.2c3.8,0,5.5-1.1,5.5-5.1c0-2.5-0.3-4.3-3.1-4.7v0c2-0.1,2.9-1.3,2.9-3.2v-4.7h-2v3.8c0,2.2-0.5,3.3-3,3.3h-6.5V45.1z"/>
				</g>
				<g id="g130" transform="translate(282.0801,72.2002)">
					<path id="path132" class="st0" d="M-103.5,54v-7.4h-2V54l-6.5,10.3h2.3l5.3-8.3l5.3,8.3h2.4L-103.5,54z"/>
				</g>
				<g id="g134" transform="translate(313.0669,74.7324)">
					<path id="path136" class="st0" d="M-103.5,54h9v-1.7h-9v-6.5h9.4v-1.8h-11.4v17.8h11.4V60h-9.4V54z"/>
				</g>
				<g id="g138" transform="translate(333.5186,74.5674)">
					<path id="path140" class="st0" d="M-103.5,54h8.6v-1.7h-8.6v-8.1h-2V62h10.9v-1.8h-8.9V54z"/>
				</g>
				<g id="g142" transform="translate(353.1426,74.5674)">
					<path id="path144" class="st0" d="M-103.5,54h8.6v-1.7h-8.6v-8.1h-2V62h10.9v-1.8h-8.9V54z"/>
				</g>
				<g id="g146" transform="translate(375.9614,80.9102)">
					<path id="path148" class="st0" d="M-103.5,54c-3,0-3.8-0.7-3.8-4.2v-6.3c0-3.5,1.2-4,3.8-4h2.4c2.6,0,3.8,0.5,3.8,4v6.3
						c0,3.5-0.8,4.2-3.8,4.2H-103.5z M-101.1,55.8c4.4,0,5.8-1.5,5.8-6v-6.3c0-4.2-1.5-5.8-5.8-5.8h-2.4c-4.3,0-5.8,1.6-5.8,5.8v6.3
						c0,4.4,1.3,5.9,5.8,6H-101.1z"/>
				</g>
				<g id="g150" transform="translate(401.5732,73.668)">
					<path id="path152" class="st0" d="M-103.5,54c3.1,0.1,3.5,1,3.5,4c0,2.3-0.3,3.1-3.5,3.1h-6.2V54H-103.5z M-109.7,45.1h-2v17.8
						h8.2c3.8,0,5.5-1.1,5.5-5.1c0-2.5-0.3-4.3-3.1-4.7v0c2-0.1,2.9-1.3,2.9-3.2v-4.7h-2v3.8c0,2.2-0.5,3.3-3,3.3h-6.5V45.1z"/>
				</g>
				<g id="g154" transform="translate(422.6895,64.793)">
					<path id="path156" class="st0" d="M-103.5,54h-2v16h-5.8v1.8h13.5V70h-5.8V54z"/>
				</g>
				<g id="g158" transform="translate(456.1836,64.6514)">
					<path id="path160" class="st0" d="M-103.5,54c-3.2,0-5.2,2-5.2,5.6v6.9c0,5,3.1,5.6,7.4,5.6h1.7c3.7,0,4.9-1.6,4.9-5.1v-0.6h-2
						v0.5c0,2.5-0.5,3.4-3.1,3.4h-1.1c-4.2,0-5.6-0.5-5.6-3.7v-4.9c0-4,0.2-5.9,3.5-5.9h2.4c3.2,0,4.2,0.5,4.2,3v1.4h2v-1.7
						c0-4.1-2.6-4.5-6.2-4.5H-103.5z"/>
				</g>
				<g id="g162" transform="translate(479.0742,80.9102)">
					<path id="path164" class="st0" d="M-103.5,54c-3,0-3.8-0.7-3.8-4.2v-6.3c0-3.5,1.2-4,3.8-4h2.4c2.6,0,3.8,0.5,3.8,4v6.3
						c0,3.5-0.8,4.2-3.8,4.2H-103.5z M-101.1,55.8c4.4,0,5.8-1.5,5.8-6v-6.3c0-4.2-1.5-5.8-5.8-5.8h-2.4c-4.3,0-5.8,1.6-5.8,5.8v6.3
						c0,4.4,1.3,5.9,5.8,6H-101.1z"/>
				</g>
				<g id="g166" transform="translate(510.6025,82.543)">
					<path id="path168" class="st0" d="M-103.5,54V41.2c0-4.8-2.8-5.1-7-5.1c-3.9,0-7,0.1-7,5.1V54h2V41.2c0-2.9,0.7-3.3,5-3.3
						c3.6,0,5,0,5,3.3V54H-103.5z"/>
				</g>
				<g id="g170" transform="translate(535.8359,64.793)">
					<path id="path172" class="st0" d="M-103.5,54h-3.3l-10,16.1h0V54h-2v17.8h3.3l9.9-16.2h0v16.2h2V54z"/>
				</g>
				<g id="g174" transform="translate(551.9355,64.793)">
					<path id="path176" class="st0" d="M-103.5,54h-2v16h-5.8v1.8h13.5V70h-5.8V54z"/>
				</g>
				<g id="g178" transform="translate(565.2637,77.5254)">
					<path id="path180" class="st0" d="M-103.5,54c0,4.7,2.2,5.2,6.6,5.2c3.8,0,6.6-0.2,6.4-5h-2c-0.1,3.1-0.7,3.2-4.4,3.2
						c-3.9,0-4.5-0.5-4.5-3c0-3.4,1.6-3.1,4.9-3.2c4.2-0.2,6.3-0.1,6.3-4.9c0-5-2.4-5.2-6.8-5.2c-4.5,0-6.9,0.5-6.5,5.7h2
						c0-3.9,0.7-3.9,4.5-3.9c3.8,0,4.8,0,4.8,3.5c0,3.4-1.5,2.8-4.8,3.1C-100.5,49.7-103.5,49.3-103.5,54"/>
				</g>
				<g id="g182" transform="translate(109.3003,73.6318)">
					<path id="path184" class="st2" d="M-103.5,54h64"/>
				</g>
				<g id="g186" transform="translate(602.3008,73.6318)">
					<path id="path188" class="st2" d="M-103.5,54h64"/>
				</g>
			</g>
		</g>
	</g>
</g>
</svg>
